# xmcd CD database file
#
# Track frame offsets:
#	150
#	15052
#	34109
#	47130
#	60330
#	73144
#	84211
#	100230
#	108103
#	119569
#	131169
#	152642
#	162804
#	174398
#	189881
#	203273
#	216016
#	230811
#	242485
#	259581
#	273661
#	286902
#	299463
#	313217
#
# Disc length: 4336 seconds
#
# Revision: 2
# Processed by: cddbd v1.5.2PL0 Copyright (c) Steve Scherf et al.
# Submitted via: CDex 1.51
#
DISCID=4810ee18
DTITLE=Various Artist - Legends of Country Music
DYEAR=2005
DGENRE=Country
TTITLE0=Rhinestone Cowboy - Glen Campbell
TTITLE1=Rocky Mountain High - John Denver
TTITLE2=Rose Garden - Lynn Anderson
TTITLE3=Ruby don't take your love to town - Kenny Rogers
TTITLE4=Detroit City - Bobby Bare
TTITLE5=Oh lonesome me - Don Gibson
TTITLE6=Blanket on the ground - Billie Joe Spears
TTITLE7=Dang me - Roger Miller
TTITLE8=Louisana Woman, Mississippi Man - Loretta Lynn Conway Twitty
TTITLE9=9 to 5 - Dolly Parton
TTITLE10=The bluest eyes in Texas - Restless Heart
TTITLE11=What a man my man is - Lynn Anderson
TTITLE12=Bouquet of Roses - Eddy Arnold
TTITLE13=I need more of you - Bellamy Brothers
TTITLE14=Counterfeit Cowboy - Dave Dudley
TTITLE15=Folsom Prison Blues - Johnny Cash
TTITLE16=The Streak - Ray Stevens
TTITLE17=The most beautyful girl in the world - Charlie Rich
TTITLE18=Cowboys Dream - Rebecca Holden
TTITLE19=My Heroes have always been Cowboys - Willie Nelson
TTITLE20=Here you come again - Dolly Parton
TTITLE21=Hello Love - Hank Snow
TTITLE22=Somebody Somewhere - Loretta Lynn
TTITLE23=Stand by your man - Tammy Wynette
EXTD=YEAR: 2005
EXTT0=
EXTT1=
EXTT2=
EXTT3=
EXTT4=
EXTT5=
EXTT6=
EXTT7=
EXTT8=
EXTT9=
EXTT10=
EXTT11=
EXTT12=
EXTT13=
EXTT14=
EXTT15=
EXTT16=
EXTT17=
EXTT18=
EXTT19=
EXTT20=
EXTT21=
EXTT22=
EXTT23=
PLAYORDER=
